# xmcd
#
# Track frame offsets:
#	150
#	20860
#	37641
#	56078
#	72128
#	87503
#	105893
#	122093
#	144143
#	161093
#	177909
#	196434
#	215484
#	233355
#	250394
#	265694
#
# Disc length: 3776 seconds
#
# Revision: 1
# Processed by: cddbd v1.5.1PL0 Copyright (c) Steve Scherf et al.
# Submitted via: audiograbber 1.81.03
#
DISCID=d40ebe10
DTITLE=George Baker - Selection
DYEAR=1900
DGENRE=
TTITLE0=I've Been Away Too Long
TTITLE1=If You Understand
TTITLE2=Baby Blue
TTITLE3=Paloma Blanca
TTITLE4=Morning Sky
TTITLE5=Darling
TTITLE6=Gone By The Wind
TTITLE7=When
TTITLE8=Don't Forget Me
TTITLE9=Libertad
TTITLE10=As Long The Sun Will Shine
TTITLE11=Send Me The Pillow
TTITLE12=Open Up Your Heart
TTITLE13=Tu No Me Queires
TTITLE14=Fly Away
TTITLE15=Love Me Like I Love You
EXTD=
EXTT0=
EXTT1=
EXTT2=
EXTT3=
EXTT4=
EXTT5=
EXTT6=
EXTT7=
EXTT8=
EXTT9=
EXTT10=
EXTT11=
EXTT12=
EXTT13=
EXTT14=
EXTT15=
PLAYORDER=
